<svg xmlns="http://www.w3.org/2000/svg" width="24" height="20" viewBox="0 0 24 20" fill="none" >
    <path fill-rule="evenodd" clip-rule="evenodd" d="M24 18.2806C24 19.017 23.3068 19.6139 22.4516 19.6139L1.54839 19.6139C0.693241 19.6139 3.72423e-06 19.017 3.75642e-06 18.2806C3.7886e-06 17.5442 0.693239 16.9473 1.54839 16.9473L22.4516 16.9473C23.3068 16.9473 24 17.5442 24 18.2806Z" fill="#00B4B0"/>
    <path fill-rule="evenodd" clip-rule="evenodd" d="M24 10.2806C24 11.017 23.403 11.6139 22.6667 11.6139L1.33334 11.6139C0.596958 11.6139 3.72423e-06 11.017 3.75642e-06 10.2806C3.7886e-06 9.54422 0.596958 8.94726 1.33334 8.94726L22.6667 8.94727C23.403 8.94727 24 9.54422 24 10.2806Z" fill="#00B4B0"/>
    <path fill-rule="evenodd" clip-rule="evenodd" d="M24 2.2806C24 3.01697 23.3068 3.61393 22.4516 3.61393L1.54839 3.61393C0.693241 3.61393 3.72423e-06 3.01698 3.75642e-06 2.2806C3.7886e-06 1.54422 0.693239 0.947271 1.54839 0.947271L22.4516 0.947266C23.3068 0.947265 24 1.54422 24 2.2806Z" fill="#00B4B0"/>
</svg>