<svg xmlns="http://www.w3.org/2000/svg" width="19" height="18" viewBox="0 0 19 18" fill="none">
  <path d="M16.58 8.28768L9.68747 15.1802C8.84309 16.0246 7.69786 16.4989 6.50372 16.4989C5.30959 16.4989 4.16436 16.0246 3.31997 15.1802C2.47559 14.3358 2.00122 13.1906 2.00122 11.9964C2.00122 10.8023 2.47559 9.65707 3.31997 8.81268L10.2125 1.92018C10.7754 1.35726 11.5389 1.04102 12.335 1.04102C13.1311 1.04102 13.8946 1.35726 14.4575 1.92018C15.0204 2.48311 15.3366 3.24659 15.3366 4.04268C15.3366 4.83878 15.0204 5.60226 14.4575 6.16518L7.55747 13.0577C7.27601 13.3391 6.89427 13.4973 6.49622 13.4973C6.09818 13.4973 5.71643 13.3391 5.43497 13.0577C5.15351 12.7762 4.99539 12.3945 4.99539 11.9964C4.99539 11.5984 5.15351 11.2166 5.43497 10.9352L11.8025 4.57518" stroke="#6136AB" stroke-width="2" stroke-linecap="round" stroke-linejoin="round"/>
</svg>