<svg xmlns="http://www.w3.org/2000/svg" width="18" height="19" viewBox="0 0 18 19" fill="none">
  <path d="M-0.00012207 1.75C-0.00012207 1.19772 0.447593 0.75 0.999878 0.75H4.99988C5.55216 0.75 5.99988 1.19772 5.99988 1.75C5.99988 2.30228 5.55216 2.75 4.99988 2.75H1.99988V16.75H15.9999V13.75C15.9999 13.1977 16.4476 12.75 16.9999 12.75C17.5522 12.75 17.9999 13.1977 17.9999 13.75V17.75C17.9999 18.3023 17.5522 18.75 16.9999 18.75H0.999878C0.965361 18.75 0.931251 18.7483 0.897634 18.7448C0.393378 18.6936 -0.00012207 18.2678 -0.00012207 17.75V1.75Z" fill="#B7B7B7"/>
  <path d="M11.0002 0.75C10.4479 0.75 10.0002 1.19772 10.0002 1.75C10.0002 2.30228 10.4479 2.75 11.0002 2.75L14.5867 2.75L5.92949 11.4072C5.53897 11.7977 5.53897 12.4309 5.92949 12.8214C6.32001 13.2119 6.95318 13.2119 7.3437 12.8214L16.0002 4.16495V7.75C16.0002 8.30228 16.4479 8.75 17.0002 8.75C17.5525 8.75 18.0002 8.30228 18.0002 7.75V1.75C18.0002 1.19772 17.5525 0.75 17.0002 0.75H11.0002Z" fill="#B7B7B7"/>
</svg>