<svg xmlns="http://www.w3.org/2000/svg" width="16" height="16" viewBox="0 0 16 16" fill="none">
<path d="M2 4H3.33333H14" stroke="#069B99" stroke-linecap="round" stroke-linejoin="round"/>
<path d="M5.33334 4.00065V2.66732C5.33334 2.3137 5.47382 1.97456 5.72387 1.72451C5.97392 1.47446 6.31305 1.33398 6.66668 1.33398H9.33334C9.68697 1.33398 10.0261 1.47446 10.2762 1.72451C10.5262 1.97456 10.6667 2.3137 10.6667 2.66732V4.00065M12.6667 4.00065V13.334C12.6667 13.6876 12.5262 14.0267 12.2762 14.2768C12.0261 14.5268 11.687 14.6673 11.3333 14.6673H4.66668C4.31305 14.6673 3.97392 14.5268 3.72387 14.2768C3.47382 14.0267 3.33334 13.6876 3.33334 13.334V4.00065H12.6667Z" stroke="#069B99" stroke-linecap="round" stroke-linejoin="round"/>
<path d="M9.33334 7.33398V11.334" stroke="#069B99" stroke-linecap="round" stroke-linejoin="round"/>
<path d="M6.66666 7.33398V11.334" stroke="#069B99" stroke-linecap="round" stroke-linejoin="round"/>
</svg>