<?xml version="1.0" encoding="UTF-8" standalone="no"?>
<svg
   xmlns:dc="http://purl.org/dc/elements/1.1/"
   xmlns:cc="http://creativecommons.org/ns#"
   xmlns:rdf="http://www.w3.org/1999/02/22-rdf-syntax-ns#"
   xmlns:svg="http://www.w3.org/2000/svg"
   xmlns="http://www.w3.org/2000/svg"
   viewBox="0 0 3333.3333 3306.6667"
   height="3306.6667"
   width="3333.3333"
   xml:space="preserve"
   id="svg2"
   version="1.1"><metadata
     id="metadata8"><rdf:RDF><cc:Work
         rdf:about=""><dc:format>image/svg+xml</dc:format><dc:type
           rdf:resource="http://purl.org/dc/dcmitype/StillImage" /></cc:Work></rdf:RDF></metadata><defs
     id="defs6"><clipPath
       id="clipPath18"
       clipPathUnits="userSpaceOnUse"><path
         id="path16"
         d="M 0,2480 H 2500 V 0 H 0 Z" /></clipPath><clipPath
       id="clipPath42"
       clipPathUnits="userSpaceOnUse"><path
         id="path40"
         d="M 682.673,1883.9 H 1398.12 V 524.554 H 682.673 Z" /></clipPath><clipPath
       id="clipPath58"
       clipPathUnits="userSpaceOnUse"><path
         id="path56"
         d="M 682.673,1812.36 H 1326.57 V 453.01 H 682.673 Z" /></clipPath><clipPath
       id="clipPath74"
       clipPathUnits="userSpaceOnUse"><path
         id="path72"
         d="M 682.673,1812.36 H 1326.57 V 596.099 H 682.673 Z" /></clipPath><clipPath
       id="clipPath90"
       clipPathUnits="userSpaceOnUse"><path
         id="path88"
         d="M 682.673,1812.36 H 1255.03 V 596.099 H 682.673 Z" /></clipPath></defs><g
     transform="matrix(1.3333333,0,0,-1.3333333,0,3306.6667)"
     id="g10"><g
       id="g12"><g
         clip-path="url(#clipPath18)"
         id="g14"><g
           transform="translate(1541.208,2241.624)"
           id="g20"><path
             id="path22"
             style="fill:#21a366;fill-opacity:1;fill-rule:nonzero;stroke:none"
             d="m 0,0 h -763.166 c -52.671,0 -95.369,-42.698 -95.369,-95.369 V -500.812 L 0,-1001.624 l 429.268,-181.151 429.267,181.151 v 500.812 z" /></g><path
           id="path24"
           style="fill:#107c41;fill-opacity:1;fill-rule:nonzero;stroke:none"
           d="m 682.673,1740.812 h 858.535 V 1240 H 682.673 Z" /><g
           transform="translate(2304.374,2241.624)"
           id="g26"><path
             id="path28"
             style="fill:#33c481;fill-opacity:1;fill-rule:nonzero;stroke:none"
             d="M 0,0 H -763.166 V -500.812 H 95.369 V -95.369 C 95.369,-42.698 52.671,0 0,0" /></g><g
           transform="translate(1541.208,1239.9996)"
           id="g30"><path
             id="path32"
             style="fill:#185c37;fill-opacity:1;fill-rule:nonzero;stroke:none"
             d="m 0,0 h -858.535 v -906.255 c 0,-52.671 42.698,-95.369 95.368,-95.369 h 10e-4 1526.332 c 52.671,0 95.369,42.698 95.369,95.369 v 405.443 z" /></g><path
           id="path34"
           style="fill:#107c41;fill-opacity:1;fill-rule:nonzero;stroke:none"
           d="m 1541.208,1240 h 858.535 V 739.188 h -858.535 z" /><g
           id="g36"><g
             id="g38" /><g
             id="g50"><g
               style="opacity:0.10000598"
               id="g48"
               clip-path="url(#clipPath42)"><g
                 id="g46"
                 transform="translate(1302.75,1883.901)"><path
                   id="path44"
                   style="fill:#000000;fill-opacity:1;fill-rule:nonzero;stroke:none"
                   d="M 0,0 H -620.077 V -1359.347 H 0 c 52.605,0.158 95.212,42.763 95.368,95.369 V -95.369 C 95.212,-42.763 52.605,-0.157 0,0" /></g></g></g></g><g
           id="g52"><g
             id="g54" /><g
             id="g66"><g
               style="opacity:0.19999701"
               id="g64"
               clip-path="url(#clipPath58)"><g
                 id="g62"
                 transform="translate(1231.2051,1812.3566)"><path
                   id="path60"
                   style="fill:#000000;fill-opacity:1;fill-rule:nonzero;stroke:none"
                   d="M 0,0 H -548.532 V -1359.347 H 0 c 52.605,0.157 95.212,42.764 95.369,95.369 V -95.369 C 95.212,-42.763 52.605,-0.157 0,0" /></g></g></g></g><g
           id="g68"><g
             id="g70" /><g
             id="g82"><g
               style="opacity:0.19999701"
               id="g80"
               clip-path="url(#clipPath74)"><g
                 id="g78"
                 transform="translate(1231.2051,1812.3566)"><path
                   id="path76"
                   style="fill:#000000;fill-opacity:1;fill-rule:nonzero;stroke:none"
                   d="M 0,0 H -548.532 V -1216.257 H 0 c 52.605,0.156 95.212,42.762 95.369,95.368 V -95.369 C 95.212,-42.763 52.605,-0.157 0,0" /></g></g></g></g><g
           id="g84"><g
             id="g86" /><g
             id="g98"><g
               style="opacity:0.19999701"
               id="g96"
               clip-path="url(#clipPath90)"><g
                 id="g94"
                 transform="translate(1159.6606,1812.3566)"><path
                   id="path92"
                   style="fill:#000000;fill-opacity:1;fill-rule:nonzero;stroke:none"
                   d="M 0,0 H -476.988 V -1216.257 H 0 c 52.605,0.156 95.211,42.762 95.369,95.368 V -95.369 C 95.211,-42.763 52.605,-0.157 0,0" /></g></g></g></g><g
           transform="translate(205.6851,1812.3566)"
           id="g100"><path
             id="path102"
             style="fill:#107c41;fill-opacity:1;fill-rule:nonzero;stroke:none"
             d="m 0,0 h 953.976 c 52.67,0 95.368,-42.698 95.368,-95.369 v -953.975 c 0,-52.671 -42.698,-95.369 -95.368,-95.369 H 0 c -52.671,0 -95.369,42.698 -95.369,95.369 V -95.369 C -95.369,-42.698 -52.671,0 0,0" /></g><g
           transform="translate(363.083,882.2769)"
           id="g104"><path
             id="path106"
             style="fill:#ffffff;fill-opacity:1;fill-rule:nonzero;stroke:none"
             d="M 0,0 231.519,358.725 19.46,715.446 H 190.094 L 305.853,487.433 c 10.637,-21.606 17.958,-37.727 21.964,-48.364 h 1.503 c 7.631,17.267 15.62,34.056 23.967,50.368 L 476.988,715.446 H 633.599 L 416.104,360.728 639.108,0 H 472.409 L 338.692,250.406 c -6.299,10.666 -11.639,21.871 -15.954,33.483 h -2.004 C 316.833,272.533 311.647,261.66 305.281,251.48 L 167.701,0 Z" /></g></g></g></g></svg>