<?xml version="1.0" encoding="UTF-8" standalone="no"?>
<svg
   xmlns:dc="http://purl.org/dc/elements/1.1/"
   xmlns:cc="http://creativecommons.org/ns#"
   xmlns:rdf="http://www.w3.org/1999/02/22-rdf-syntax-ns#"
   xmlns:svg="http://www.w3.org/2000/svg"
   xmlns="http://www.w3.org/2000/svg"
   viewBox="0 0 3333.3333 3306.6667"
   height="3306.6667"
   width="3333.3333"
   xml:space="preserve"
   id="svg2"
   version="1.1"><metadata
     id="metadata8"><rdf:RDF><cc:Work
         rdf:about=""><dc:format>image/svg+xml</dc:format><dc:type
           rdf:resource="http://purl.org/dc/dcmitype/StillImage" /></cc:Work></rdf:RDF></metadata><defs
     id="defs6"><clipPath
       id="clipPath18"
       clipPathUnits="userSpaceOnUse"><path
         id="path16"
         d="M 0,2480 H 2500 V 0 H 0 Z" /></clipPath><clipPath
       id="clipPath42"
       clipPathUnits="userSpaceOnUse"><path
         id="path40"
         d="M 672.697,1895.12 H 1400.61 V 512.084 H 672.697 Z" /></clipPath><clipPath
       id="clipPath58"
       clipPathUnits="userSpaceOnUse"><path
         id="path56"
         d="M 672.697,1822.33 H 1327.82 V 439.292 H 672.697 Z" /></clipPath><clipPath
       id="clipPath74"
       clipPathUnits="userSpaceOnUse"><path
         id="path72"
         d="M 672.697,1822.33 H 1327.82 V 584.875 H 672.697 Z" /></clipPath><clipPath
       id="clipPath90"
       clipPathUnits="userSpaceOnUse"><path
         id="path88"
         d="M 672.697,1822.33 H 1255.03 V 584.875 H 672.697 Z" /></clipPath></defs><g
     transform="matrix(1.3333333,0,0,-1.3333333,0,3306.6667)"
     id="g10"><g
       id="g12"><g
         clip-path="url(#clipPath18)"
         id="g14"><g
           transform="translate(2322.6641,2259.0825)"
           id="g20"><path
             id="path22"
             style="fill:#41a5ee;fill-opacity:1;fill-rule:nonzero;stroke:none"
             d="m 0,0 h -1552.936 c -53.589,0 -97.031,-43.442 -97.031,-97.031 v -412.51 l 873.499,-254.771 873.499,254.771 v 412.51 C 97.031,-43.442 53.589,0 0,0" /></g><g
           transform="translate(2419.6953,1749.5411)"
           id="g24"><path
             id="path26"
             style="fill:#2b7cd3;fill-opacity:1;fill-rule:nonzero;stroke:none"
             d="m 0,0 h -1746.999 v -509.542 l 873.5,-254.77 L 0,-509.542 Z" /></g><g
           transform="translate(2419.6953,1239.9996)"
           id="g28"><path
             id="path30"
             style="fill:#185abd;fill-opacity:1;fill-rule:nonzero;stroke:none"
             d="m 0,0 h -1746.999 v -509.541 l 873.5,-254.771 L 0,-509.541 Z" /></g><g
           transform="translate(2419.6953,730.4586)"
           id="g32"><path
             id="path34"
             style="fill:#103f91;fill-opacity:1;fill-rule:nonzero;stroke:none"
             d="m 0,0 h -1746.999 v -412.51 c 0,-53.589 43.443,-97.031 97.031,-97.031 h 10e-4 1552.936 c 53.589,0 97.031,43.442 97.031,97.031 z" /></g><g
           id="g36"><g
             id="g38" /><g
             id="g50"><g
               style="opacity:0.10000598"
               id="g48"
               clip-path="url(#clipPath42)"><g
                 id="g46"
                 transform="translate(1303.5811,1895.1246)"><path
                   id="path44"
                   style="fill:#000000;fill-opacity:1;fill-rule:nonzero;stroke:none"
                   d="M 0,0 H -630.884 V -1383.041 H 0 c 53.523,0.16 96.872,43.509 97.031,97.031 V -97.031 C 96.872,-43.509 53.523,-0.16 0,0" /></g></g></g></g><g
           id="g52"><g
             id="g54" /><g
             id="g66"><g
               style="opacity:0.19999701"
               id="g64"
               clip-path="url(#clipPath58)"><g
                 id="g62"
                 transform="translate(1230.79,1822.3326)"><path
                   id="path60"
                   style="fill:#000000;fill-opacity:1;fill-rule:nonzero;stroke:none"
                   d="M 0,0 H -558.093 V -1383.04 H 0 c 53.522,0.159 96.871,43.509 97.031,97.031 V -97.031 C 96.871,-43.508 53.522,-0.16 0,0" /></g></g></g></g><g
           id="g68"><g
             id="g70" /><g
             id="g82"><g
               style="opacity:0.19999701"
               id="g80"
               clip-path="url(#clipPath74)"><g
                 id="g78"
                 transform="translate(1230.79,1822.3326)"><path
                   id="path76"
                   style="fill:#000000;fill-opacity:1;fill-rule:nonzero;stroke:none"
                   d="M 0,0 H -558.093 V -1237.457 H 0 c 53.522,0.16 96.871,43.509 97.031,97.031 V -97.031 C 96.871,-43.508 53.522,-0.16 0,0" /></g></g></g></g><g
           id="g84"><g
             id="g86" /><g
             id="g98"><g
               style="opacity:0.19999701"
               id="g96"
               clip-path="url(#clipPath90)"><g
                 id="g94"
                 transform="translate(1157.998,1822.3326)"><path
                   id="path92"
                   style="fill:#000000;fill-opacity:1;fill-rule:nonzero;stroke:none"
                   d="M 0,0 H -485.301 V -1237.457 H 0 c 53.522,0.16 96.871,43.509 97.031,97.031 V -97.031 C 96.871,-43.508 53.522,-0.16 0,0" /></g></g></g></g><g
           transform="translate(187.395,1822.3326)"
           id="g100"><path
             id="path102"
             style="fill:#185abd;fill-opacity:1;fill-rule:nonzero;stroke:none"
             d="m 0,0 h 970.603 c 53.589,0 97.031,-43.442 97.031,-97.031 v -970.604 c 0,-53.588 -43.442,-97.03 -97.03,-97.03 H 970.603 0 c -53.589,0 -97.031,43.441 -97.031,97.03 V -97.031 C -97.031,-43.442 -53.589,0 0,0" /></g><g
           transform="translate(960.2236,876.0416)"
           id="g104"><path
             id="path106"
             style="fill:#ffffff;fill-opacity:1;fill-rule:nonzero;stroke:none"
             d="M 0,0 H -131.025 L -283.888,502.262 -444.029,0 h -131.025 l -145.583,727.917 h 131.025 l 101.908,-509.542 152.862,494.983 h 109.188 L -80.071,218.375 21.837,727.917 h 123.746 z" /></g></g></g></g></svg>