<svg xmlns="http://www.w3.org/2000/svg" width="20" height="20" viewBox="0 0 20 20" fill="none">
  <path d="M10.6251 6.6665C10.6251 6.32133 10.3453 6.0415 10.0001 6.0415C9.6549 6.0415 9.37508 6.32133 9.37508 6.6665V9.37484H6.66675C6.32157 9.37484 6.04175 9.65466 6.04175 9.99984C6.04175 10.345 6.32157 10.6248 6.66675 10.6248H9.37508V13.3332C9.37508 13.6783 9.6549 13.9582 10.0001 13.9582C10.3453 13.9582 10.6251 13.6783 10.6251 13.3332V10.6248H13.3334C13.6786 10.6248 13.9584 10.345 13.9584 9.99984C13.9584 9.65466 13.6786 9.37484 13.3334 9.37484H10.6251V6.6665Z" fill="#363538"/>
  <path fill-rule="evenodd" clip-rule="evenodd" d="M18.3334 9.99984C18.3334 14.6022 14.6025 18.3332 10.0001 18.3332C5.39771 18.3332 1.66675 14.6022 1.66675 9.99984C1.66675 5.39746 5.39771 1.6665 10.0001 1.6665C14.6025 1.6665 18.3334 5.39746 18.3334 9.99984ZM17.0834 9.99984C17.0834 13.9119 13.9121 17.0832 10.0001 17.0832C6.08806 17.0832 2.91675 13.9119 2.91675 9.99984C2.91675 6.08782 6.08806 2.9165 10.0001 2.9165C13.9121 2.9165 17.0834 6.08782 17.0834 9.99984Z" fill="#363538"/>
</svg>