<svg xmlns="http://www.w3.org/2000/svg" width="66" height="73" viewBox="0 0 66 73" fill="none">
  <path d="M50.1489 1.6185C47.204 2.64703 45.8996 4.24852 43.892 6.57429L38.3159 13.7829L32.7032 20.9916V35.8597H44.8068L61.7898 14.6843C62.5174 13.5199 63.1692 12.6774 63.5775 11.0798C64.0671 9.16396 63.5565 6.34902 62.8861 5.22267C61.5454 2.96997 60.1476 1.95532 58.4169 1.39311C55.2077 0.487395 52.4883 0.80138 50.1489 1.6185Z" fill="#FFD700"/>
  <path d="M44.8068 35.8596H32.7032V50.5057L44.7701 66.2711C46.4792 68.185 49.7278 72.624 58.1777 72.1282C59.742 72.0364 61.8442 71.1483 63.3173 69.4249C64.7203 67.9015 65.3285 66.2711 65.3285 63.7931C65.3285 60.8646 64.2112 59.7383 63.0939 58.1614L58.4379 52.5296L44.8068 35.8596Z" fill="#00C7D4"/>
  <path d="M20.4502 35.8596H32.7038V50.5022L20.8972 65.5953C18.6865 68.3806 15.9443 70.7765 13.9331 71.4524C11.2516 72.3534 6.112 72.6938 3.43047 70.7765C0.973458 69.0198 0.386162 67.3975 0.0774692 65.37C-0.368421 62.4415 1.20752 59.513 2.32482 58.1614L20.4502 35.8596Z" fill="#FD7202"/>
  <ellipse cx="11.2635" cy="10.3056" rx="9.46138" ry="9.46136" fill="#332266"/>
</svg>