<svg xmlns="http://www.w3.org/2000/svg" width="100" height="67" viewBox="0 0 100 67" fill="none">
  <g clip-path="url(#clip0_1071_13309)">
    <path d="M79.6631 29.6544L79.9599 27.275C80.0654 26.4294 80.5025 25.6604 81.175 25.137C81.8475 24.6137 82.7004 24.3789 83.546 24.4844C84.3916 24.5899 85.1607 25.027 85.684 25.6996C86.2073 26.3721 86.4421 27.225 86.3366 28.0706L86.0397 30.4499C86.0254 30.5634 85.9667 30.6667 85.8764 30.7369C85.7861 30.8072 85.6716 30.8388 85.558 30.8248L80.0379 30.1361C79.9244 30.1218 79.8211 30.063 79.7509 29.9727C79.6806 29.8824 79.649 29.7679 79.6631 29.6544Z" fill="#2F2E41"/>
    <path d="M82.3071 30.364C83.6081 30.364 84.6628 29.3093 84.6628 28.0083C84.6628 26.7073 83.6081 25.6526 82.3071 25.6526C81.0061 25.6526 79.9514 26.7073 79.9514 28.0083C79.9514 29.3093 81.0061 30.364 82.3071 30.364Z" fill="#FFB8B8"/>
    <path d="M79.182 27.371C79.2661 26.7024 79.6121 26.0945 80.1439 25.6807C80.6757 25.2668 81.35 25.0808 82.0187 25.1635L82.4946 25.2229C83.1632 25.3071 83.7711 25.653 84.1849 26.1848C84.5988 26.7166 84.7847 27.3909 84.7021 28.0597L84.6961 28.1072L83.6905 27.9818L83.4673 26.9785L83.2789 27.9304L82.7591 27.8656L82.6465 27.3594L82.5514 27.8397L79.176 27.4186L79.182 27.371Z" fill="#2F2E41"/>
    <path d="M70.7855 36.4113C70.8575 36.5527 70.9596 36.6765 71.0847 36.7741C71.2097 36.8718 71.3547 36.9408 71.5093 36.9763C71.6639 37.0119 71.8244 37.0131 71.9795 36.9799C72.1346 36.9467 72.2806 36.8799 72.4071 36.7842L74.5467 38.0376L75.6255 36.9231L72.5791 35.1955C72.4042 34.9937 72.1614 34.8629 71.8966 34.8281C71.6318 34.7934 71.3634 34.8569 71.1423 35.0068C70.9212 35.1566 70.7628 35.3824 70.697 35.6412C70.6313 35.9001 70.6628 36.1741 70.7855 36.4113Z" fill="#FFB8B8"/>
    <path d="M77.7984 38.6638C76.2202 38.6638 73.443 37.9573 73.2892 37.9178L73.2407 37.9054L73.6778 35.6924L77.9197 36.5302L80.2241 33.2851L82.8699 33.0161L82.796 33.1133C82.7616 33.1586 79.3511 37.6482 78.8204 38.4013C78.6864 38.5913 78.3038 38.6638 77.7984 38.6638Z" fill="#3F3D56"/>
    <path d="M78.2216 46.9697L78.1584 46.9396C78.145 46.9332 76.8041 46.281 76.1096 45.0077C75.4184 43.7405 78.6541 38.3648 78.8804 37.9918L78.8837 36.2847L80.0477 33.142L81.5322 32.303L80.2577 35.2768L78.2216 46.9697Z" fill="#3F3D56"/>
    <path d="M76.7341 65.3186L75.3154 65.3185L74.6404 59.8462L76.7343 59.8463L76.7341 65.3186Z" fill="#FFB8B8"/>
    <path d="M77.0961 66.6935L72.5215 66.6934V66.6355C72.5215 66.1633 72.7091 65.7104 73.043 65.3765C73.377 65.0426 73.8298 64.855 74.302 64.855H74.3022L77.0962 64.8551L77.0961 66.6935Z" fill="#2F2E41"/>
    <path d="M91.9734 64.0748L90.6252 64.5165L88.2798 59.5265L90.2696 58.8745L91.9734 64.0748Z" fill="#FFB8B8"/>
    <path d="M92.7454 65.2693L88.3981 66.6936L88.3801 66.6386C88.2331 66.1899 88.2704 65.7011 88.4837 65.2798C88.697 64.8585 89.069 64.5392 89.5177 64.3922L89.5178 64.3921L92.173 63.5222L92.7454 65.2693Z" fill="#2F2E41"/>
    <path d="M89.2263 63.1801L85.1819 56.4281L81.7677 49.2144L78.6953 55.5865L77.4749 63.8395L73.1946 63.8989L73.2115 63.832L79.7616 37.8057L84.8915 38.5721L84.658 41.9582L84.7971 42.156C85.9559 43.8022 87.1541 45.5043 86.4669 47.3391L88.415 53.1237L92.7274 62.7557L89.2263 63.1801Z" fill="#2F2E41"/>
    <path d="M79.9959 43.4464C79.2526 43.4464 78.4045 42.5977 78.8445 41.1486L78.816 41.128L79.8728 36.459C78.9505 35.14 80.1665 34.0515 80.2804 33.9543L80.8608 32.9095L83.4217 31.2854L84.7174 42.0513L84.6983 42.0697C83.7625 42.9651 80.6195 43.4464 79.9959 43.4464Z" fill="#332266"/>
    <path d="M85.2406 45.8759C85.1388 45.8775 85.0372 45.8667 84.9381 45.8439C84.8385 45.8189 84.6772 45.6921 84.4281 44.8808C83.4376 41.6558 82.2681 31.952 83.1177 31.0024L83.1372 30.9807L84.5322 31.2132C84.6482 31.1276 85.2567 30.7028 85.8182 30.7767C85.9338 30.7912 86.0452 30.8293 86.1455 30.8886C86.2458 30.9479 86.3329 31.0271 86.4014 31.1214L86.411 31.1339L86.8554 37.4566L88.4836 44.8972L88.4446 44.9149C88.3498 44.958 86.3168 45.8759 85.2406 45.8759Z" fill="#3F3D56"/>
    <path d="M84.3024 43.4045C84.461 43.3992 84.6164 43.3592 84.7579 43.2873C84.8993 43.2155 85.0232 43.1135 85.121 42.9885C85.2187 42.8635 85.2878 42.7187 85.3235 42.5641C85.3592 42.4095 85.3606 42.249 85.3276 42.0939L87.3697 40.6873L86.8177 39.2378L83.9616 41.2646C83.7046 41.3374 83.4833 41.502 83.3395 41.7271C83.1957 41.9522 83.1395 42.2222 83.1816 42.4859C83.2236 42.7497 83.3609 42.9889 83.5675 43.1582C83.774 43.3275 84.0355 43.4151 84.3024 43.4045Z" fill="#FFB8B8"/>
    <path d="M86.6958 41.8143L84.8767 40.4804L87.4337 36.9936L85.4715 33.5308L86.3494 31.0205L86.4061 31.1286C86.4325 31.179 89.053 36.171 89.5101 36.971C89.9857 37.8032 86.8609 41.6138 86.7277 41.7756L86.6958 41.8143Z" fill="#3F3D56"/>
    <path d="M45.778 57.5079L44.2298 56.856L43.1677 49.095H29.0247L27.8735 56.8243L26.4885 57.5168C26.4222 57.55 26.369 57.6045 26.3376 57.6716C26.3062 57.7387 26.2984 57.8145 26.3154 57.8866C26.3325 57.9587 26.3733 58.023 26.4314 58.0689C26.4895 58.1149 26.5615 58.1399 26.6356 58.1399H45.6504C45.7263 58.1399 45.7999 58.1137 45.8587 58.0656C45.9174 58.0175 45.9578 57.9506 45.9728 57.8761C45.9878 57.8017 45.9766 57.7243 45.9411 57.6572C45.9056 57.5901 45.8479 57.5373 45.778 57.5079Z" fill="#E6E6E6"/>
    <path d="M70.9111 50.1276H1.43669C1.07217 50.1267 0.722871 49.9814 0.46541 49.7233C0.207949 49.4653 0.0633569 49.1157 0.0633545 48.7512V38.9543H72.2844V48.7512C72.2844 49.1157 72.1398 49.4653 71.8824 49.7233C71.6249 49.9814 71.2756 50.1267 70.9111 50.1276Z" fill="#CCCCCC"/>
    <path d="M72.3571 43.5848H0V1.66632C0.000508268 1.22641 0.175491 0.804659 0.48656 0.4936C0.797629 0.182541 1.21938 0.00757344 1.65929 0.00708008H70.6978C71.1377 0.00757231 71.5595 0.18254 71.8705 0.493598C72.1816 0.804657 72.3566 1.2264 72.3571 1.66632V43.5848Z" fill="#3F3D56"/>
    <path d="M68.0355 40.5422H4.32155C3.98241 40.5418 3.65726 40.4069 3.41745 40.1671C3.17763 39.9273 3.04274 39.6022 3.04236 39.263V4.32855C3.04274 3.9894 3.17763 3.66425 3.41744 3.42443C3.65725 3.18461 3.9824 3.04971 4.32155 3.04932H68.0355C68.3746 3.04971 68.6998 3.18461 68.9396 3.42443C69.1794 3.66425 69.3143 3.9894 69.3147 4.32855V39.263C69.3143 39.6022 69.1794 39.9273 68.9396 40.1671C68.6998 40.4069 68.3746 40.5418 68.0355 40.5422Z" fill="white"/>
    <path d="M54.0472 58.2209H18.2455C18.2088 58.2217 18.1729 58.2103 18.1434 58.1886C18.1138 58.1668 18.0923 58.1359 18.0822 58.1007C18.0759 58.0767 18.0751 58.0515 18.08 58.0272C18.085 58.0029 18.0954 57.98 18.1105 57.9604C18.1257 57.9407 18.1451 57.9248 18.1674 57.9138C18.1896 57.9028 18.2141 57.8971 18.2389 57.8971H54.034C54.0726 57.8957 54.1106 57.9075 54.1418 57.9305C54.1729 57.9535 54.1953 57.9863 54.2054 58.0237C54.2107 58.0474 54.2105 58.072 54.205 58.0956C54.1995 58.1192 54.1888 58.1413 54.1736 58.1603C54.1584 58.1792 54.1392 58.1945 54.1173 58.205C54.0954 58.2155 54.0715 58.2209 54.0472 58.2209Z" fill="#CCCCCC"/>
    <path d="M67.3551 8.69702H51.9717V20.4496H67.3551V8.69702Z" fill="#F2F2F2"/>
    <path d="M66.5908 9.28101H52.7361V19.8656H66.5908V9.28101Z" fill="white"/>
    <path d="M59.9068 17.1321C59.9086 17.1321 59.9104 17.1321 59.9123 17.132C60.8501 17.0829 61.734 16.6785 62.3843 16.001C63.0346 15.3234 63.4024 14.4236 63.413 13.4845C63.4235 12.5455 63.0759 11.6377 62.441 10.9457C61.8061 10.2537 60.9314 9.82961 59.9949 9.75954C59.9833 9.75863 59.9717 9.76012 59.9607 9.76393C59.9497 9.76773 59.9397 9.77376 59.9311 9.78164C59.9226 9.78939 59.9158 9.79881 59.9111 9.80932C59.9064 9.81983 59.904 9.8312 59.9039 9.8427L59.8231 17.0468C59.8229 17.0692 59.8316 17.0908 59.8473 17.1068C59.863 17.1227 59.8844 17.1319 59.9068 17.1321Z" fill="#3F3D56"/>
    <path d="M57.0098 10.9509C57.0386 10.9513 57.066 10.963 57.0862 10.9835L59.5663 13.5199C59.5762 13.53 59.5841 13.542 59.5894 13.5552C59.5947 13.5684 59.5973 13.5826 59.5971 13.5968L59.5585 17.044C59.5584 17.0588 59.5552 17.0734 59.5492 17.0869C59.5431 17.1004 59.5344 17.1125 59.5234 17.1225C59.5125 17.1326 59.4996 17.1403 59.4855 17.1452C59.4714 17.1501 59.4565 17.152 59.4416 17.1509C58.7521 17.0993 58.0905 16.8564 57.5314 16.4495C56.9723 16.0427 56.5377 15.4879 56.2765 14.8477C56.0153 14.2074 55.9378 13.507 56.0528 12.8251C56.1677 12.1433 56.4705 11.507 56.9272 10.9877C56.9371 10.9765 56.9492 10.9675 56.9627 10.9612C56.9762 10.9549 56.9909 10.9514 57.0058 10.951C57.0072 10.9509 57.0085 10.9509 57.0098 10.9509Z" fill="#E6E6E6"/>
    <path d="M59.5316 9.73023C59.5593 9.73057 59.5858 9.7414 59.6058 9.76056C59.6166 9.77077 59.6251 9.78309 59.6308 9.79674C59.6365 9.8104 59.6394 9.82509 59.6391 9.8399L59.6043 12.9502C59.604 12.9716 59.5974 12.9924 59.5853 13.0101C59.5733 13.0278 59.5562 13.0415 59.5363 13.0495C59.5164 13.0574 59.4946 13.0593 59.4737 13.0549C59.4527 13.0505 59.4335 13.04 59.4186 13.0247L57.2544 10.8114C57.2441 10.8009 57.2361 10.7884 57.2308 10.7747C57.2255 10.761 57.223 10.7463 57.2236 10.7316C57.2241 10.7169 57.2277 10.7024 57.234 10.6892C57.2403 10.6759 57.2492 10.664 57.2602 10.6542C57.8896 10.1002 58.6876 9.77471 59.5249 9.73036C59.5271 9.73025 59.5294 9.73021 59.5316 9.73023Z" fill="#332266"/>
    <path d="M58.4168 18.626C58.4154 18.7572 58.375 18.885 58.3009 18.9933C58.2268 19.1016 58.1222 19.1855 58.0004 19.2343C57.8786 19.2832 57.7451 19.2948 57.6167 19.2678C57.4883 19.2407 57.3708 19.1762 57.2791 19.0824C57.1873 18.9886 57.1255 18.8696 57.1013 18.7407C57.0771 18.6117 57.0918 18.4784 57.1434 18.3578C57.1949 18.2371 57.2811 18.1345 57.391 18.0628C57.501 17.9911 57.6296 17.9536 57.7609 17.9551C57.9367 17.9573 58.1046 18.0291 58.2276 18.1549C58.3505 18.2807 58.4186 18.4501 58.4168 18.626Z" fill="#332266"/>
    <path d="M60.3123 18.6475C60.3108 18.7787 60.2705 18.9065 60.1964 19.0148C60.1222 19.1231 60.0177 19.2069 59.8959 19.2558C59.7741 19.3046 59.6406 19.3163 59.5122 19.2892C59.3837 19.2622 59.2662 19.1977 59.1745 19.1039C59.0828 19.0101 59.0209 18.8911 58.9968 18.7622C58.9726 18.6332 58.9872 18.4999 59.0388 18.3793C59.0904 18.2586 59.1766 18.156 59.2865 18.0843C59.3964 18.0126 59.5251 17.9751 59.6563 17.9766C59.8322 17.9788 60 18.0506 60.123 18.1764C60.246 18.3022 60.3141 18.4716 60.3123 18.6475Z" fill="#3F3D56"/>
    <path d="M62.2079 18.6685C62.2065 18.7997 62.1661 18.9275 62.092 19.0358C62.0179 19.1441 61.9133 19.2279 61.7915 19.2768C61.6697 19.3256 61.5362 19.3373 61.4078 19.3102C61.2794 19.2832 61.1619 19.2187 61.0701 19.1249C60.9784 19.031 60.9165 18.9121 60.8924 18.7831C60.8682 18.6542 60.8829 18.5209 60.9344 18.4003C60.986 18.2796 61.0722 18.1769 61.1821 18.1053C61.292 18.0336 61.4207 17.9961 61.5519 17.9976C61.7278 17.9998 61.8957 18.0716 62.0186 18.1974C62.1416 18.3232 62.2097 18.4926 62.2079 18.6685Z" fill="#E6E6E6"/>
    <path d="M67.1934 22.2993H51.8099V34.0519H67.1934V22.2993Z" fill="#F2F2F2"/>
    <path d="M66.429 22.8835H52.5744V33.4681H66.429V22.8835Z" fill="white"/>
    <path d="M54.925 26.3619C55.2427 26.3619 55.5003 26.1044 55.5003 25.7867C55.5003 25.469 55.2427 25.2114 54.925 25.2114C54.6073 25.2114 54.3498 25.469 54.3498 25.7867C54.3498 26.1044 54.6073 26.3619 54.925 26.3619Z" fill="#3F3D56"/>
    <path d="M64.1677 25.3392C64.219 25.3391 64.2698 25.3491 64.3172 25.3687C64.3646 25.3883 64.4077 25.417 64.444 25.4532C64.4803 25.4895 64.5091 25.5325 64.5287 25.5799C64.5484 25.6273 64.5585 25.678 64.5585 25.7293C64.5585 25.7806 64.5484 25.8314 64.5287 25.8788C64.5091 25.9261 64.4803 25.9692 64.444 26.0054C64.4077 26.0417 64.3646 26.0704 64.3172 26.0899C64.2698 26.1095 64.219 26.1195 64.1677 26.1195H58.1176C58.0141 26.1195 57.9149 26.0784 57.8417 26.0052C57.7685 25.932 57.7274 25.8328 57.7274 25.7293C57.7274 25.6259 57.7685 25.5266 57.8417 25.4535C57.9149 25.3803 58.0141 25.3392 58.1176 25.3392H64.1677ZM64.1677 25.2437H58.1176C58.0537 25.2436 57.9905 25.256 57.9315 25.2804C57.8725 25.3048 57.8188 25.3405 57.7737 25.3856C57.7285 25.4308 57.6927 25.4843 57.6682 25.5433C57.6438 25.6023 57.6312 25.6655 57.6312 25.7293C57.6312 25.7932 57.6438 25.8564 57.6682 25.9154C57.6927 25.9743 57.7285 26.0279 57.7737 26.073C57.8188 26.1181 57.8725 26.1539 57.9315 26.1782C57.9905 26.2026 58.0537 26.2151 58.1176 26.215H64.1677C64.2316 26.2151 64.2948 26.2026 64.3538 26.1782C64.4128 26.1539 64.4664 26.1181 64.5116 26.073C64.5568 26.0279 64.5926 25.9743 64.6171 25.9154C64.6415 25.8564 64.6541 25.7932 64.6541 25.7293C64.6541 25.6655 64.6415 25.6023 64.6171 25.5433C64.5926 25.4843 64.5568 25.4308 64.5116 25.3856C64.4664 25.3405 64.4128 25.3048 64.3538 25.2804C64.2948 25.256 64.2316 25.2436 64.1677 25.2437Z" fill="#3F3D56"/>
    <path d="M61.7805 26.215H57.226C57.0972 26.215 56.9736 26.1638 56.8826 26.0727C56.7915 25.9817 56.7403 25.8581 56.7403 25.7293C56.7403 25.6005 56.7915 25.477 56.8826 25.3859C56.9736 25.2948 57.0972 25.2437 57.226 25.2437H61.7805C61.9093 25.2437 62.0328 25.2948 62.1239 25.3859C62.215 25.477 62.2661 25.6005 62.2661 25.7293C62.2661 25.8581 62.215 25.9817 62.1239 26.0727C62.0328 26.1638 61.9093 26.215 61.7805 26.215Z" fill="#332266"/>
    <path d="M54.925 28.7506C55.2427 28.7506 55.5003 28.4931 55.5003 28.1754C55.5003 27.8576 55.2427 27.6001 54.925 27.6001C54.6073 27.6001 54.3498 27.8576 54.3498 28.1754C54.3498 28.4931 54.6073 28.7506 54.925 28.7506Z" fill="#3F3D56"/>
    <path d="M64.1678 27.7281C64.2191 27.728 64.2699 27.7381 64.3173 27.7576C64.3647 27.7772 64.4078 27.8059 64.4441 27.8422C64.4804 27.8784 64.5092 27.9214 64.5288 27.9688C64.5485 28.0162 64.5586 28.067 64.5586 28.1182C64.5586 28.1695 64.5485 28.2203 64.5288 28.2677C64.5092 28.3151 64.4804 28.3581 64.4441 28.3943C64.4078 28.4306 64.3647 28.4593 64.3173 28.4789C64.2699 28.4984 64.2191 28.5085 64.1678 28.5084H58.1176C58.0142 28.5084 57.9149 28.4673 57.8418 28.3941C57.7686 28.3209 57.7275 28.2217 57.7275 28.1182C57.7275 28.0148 57.7686 27.9155 57.8418 27.8424C57.9149 27.7692 58.0142 27.7281 58.1176 27.7281H64.1678ZM64.1678 27.6326H58.1176C57.9888 27.6326 57.8653 27.6837 57.7742 27.7748C57.6831 27.8659 57.632 27.9894 57.632 28.1182C57.632 28.2471 57.6831 28.3706 57.7742 28.4617C57.8653 28.5528 57.9888 28.6039 58.1176 28.6039H64.1678C64.2966 28.6039 64.4201 28.5528 64.5112 28.4617C64.6023 28.3706 64.6535 28.2471 64.6535 28.1182C64.6535 27.9894 64.6023 27.8659 64.5112 27.7748C64.4201 27.6837 64.2966 27.6326 64.1678 27.6326Z" fill="#3F3D56"/>
    <path d="M63.5003 28.6039H57.226C57.0972 28.6039 56.9736 28.5527 56.8825 28.4617C56.7915 28.3706 56.7403 28.2471 56.7403 28.1182C56.7403 27.9894 56.7915 27.8659 56.8825 27.7748C56.9736 27.6837 57.0972 27.6326 57.226 27.6326H63.5003C63.6292 27.6326 63.7527 27.6837 63.8438 27.7748C63.9349 27.8659 63.986 27.9894 63.986 28.1182C63.986 28.2471 63.9349 28.3706 63.8438 28.4617C63.7527 28.5527 63.6292 28.6039 63.5003 28.6039Z" fill="#332266"/>
    <path d="M54.925 31.1395C55.2427 31.1395 55.5003 30.882 55.5003 30.5643C55.5003 30.2466 55.2427 29.989 54.925 29.989C54.6073 29.989 54.3498 30.2466 54.3498 30.5643C54.3498 30.882 54.6073 31.1395 54.925 31.1395Z" fill="#3F3D56"/>
    <path d="M64.1678 30.1165C64.2191 30.1165 64.2699 30.1265 64.3173 30.1461C64.3647 30.1656 64.4078 30.1943 64.4441 30.2306C64.4804 30.2668 64.5092 30.3099 64.5288 30.3572C64.5485 30.4046 64.5586 30.4554 64.5586 30.5067C64.5586 30.558 64.5485 30.6087 64.5288 30.6561C64.5092 30.7035 64.4804 30.7465 64.4441 30.7828C64.4078 30.819 64.3647 30.8477 64.3173 30.8673C64.2699 30.8869 64.2191 30.8969 64.1678 30.8968H58.1176C58.0142 30.8968 57.9149 30.8557 57.8418 30.7825C57.7686 30.7094 57.7275 30.6101 57.7275 30.5067C57.7275 30.4032 57.7686 30.304 57.8418 30.2308C57.9149 30.1576 58.0142 30.1165 58.1176 30.1165H64.1678ZM64.1678 30.021H58.1176C57.9888 30.021 57.8653 30.0722 57.7742 30.1632C57.6831 30.2543 57.632 30.3779 57.632 30.5067C57.632 30.6355 57.6831 30.759 57.7742 30.8501C57.8653 30.9412 57.9888 30.9923 58.1176 30.9923H64.1678C64.2966 30.9923 64.4201 30.9412 64.5112 30.8501C64.6023 30.759 64.6535 30.6355 64.6535 30.5067C64.6535 30.3779 64.6023 30.2543 64.5112 30.1632C64.4201 30.0722 64.2966 30.021 64.1678 30.021Z" fill="#3F3D56"/>
    <path d="M59.7739 30.9923H57.226C57.1621 30.9924 57.0989 30.9799 57.0399 30.9556C56.9809 30.9312 56.9272 30.8955 56.8821 30.8503C56.8369 30.8052 56.801 30.7517 56.7766 30.6927C56.7521 30.6337 56.7396 30.5705 56.7396 30.5067C56.7396 30.4428 56.7521 30.3796 56.7766 30.3206C56.801 30.2617 56.8369 30.2081 56.8821 30.163C56.9272 30.1179 56.9809 30.0821 57.0399 30.0578C57.0989 30.0334 57.1621 30.0209 57.226 30.021H59.7739C59.9026 30.0212 60.0259 30.0724 60.1169 30.1635C60.2078 30.2546 60.2589 30.378 60.2589 30.5067C60.2589 30.6354 60.2078 30.7588 60.1169 30.8498C60.0259 30.9409 59.9026 30.9922 59.7739 30.9923Z" fill="#332266"/>
    <path d="M48.4094 10.7764H5.43085V32.8029H48.4094V10.7764Z" fill="#F2F2F2"/>
    <path d="M46.9767 11.8708H6.8634V31.7084H46.9767V11.8708Z" fill="white"/>
    <path d="M42.0019 28.682H12.7601C12.7358 28.682 12.7125 28.6724 12.6954 28.6552C12.6782 28.6381 12.6686 28.6148 12.6686 28.5905V14.5749C12.6686 14.5506 12.6782 14.5274 12.6954 14.5102C12.7125 14.493 12.7358 14.4834 12.7601 14.4834C12.7844 14.4834 12.8076 14.493 12.8248 14.5102C12.842 14.5274 12.8516 14.5506 12.8516 14.5749V28.499H42.0019C42.0262 28.499 42.0495 28.5087 42.0667 28.5258C42.0838 28.543 42.0935 28.5663 42.0935 28.5905C42.0935 28.6148 42.0838 28.6381 42.0667 28.6552C42.0495 28.6724 42.0262 28.682 42.0019 28.682Z" fill="#3F3D56"/>
    <path d="M19.0077 27.6752H16.3481C16.2761 27.6751 16.207 27.6465 16.1561 27.5956C16.1052 27.5446 16.0765 27.4756 16.0764 27.4036V23.7372C16.0765 23.6652 16.1052 23.5961 16.1561 23.5452C16.207 23.4943 16.2761 23.4657 16.3481 23.4656H19.0077C19.0798 23.4657 19.1488 23.4943 19.1997 23.5452C19.2507 23.5961 19.2793 23.6652 19.2794 23.7372V27.4036C19.2793 27.4756 19.2507 27.5446 19.1997 27.5956C19.1488 27.6465 19.0798 27.6751 19.0077 27.6752Z" fill="#332266"/>
    <path d="M23.858 27.6752H21.1983C21.1263 27.6751 21.0572 27.6465 21.0063 27.5955C20.9554 27.5446 20.9267 27.4756 20.9266 27.4035V20.2597C20.9267 20.1877 20.9554 20.1186 21.0063 20.0677C21.0572 20.0168 21.1263 19.9881 21.1983 19.988H23.858C23.93 19.9881 23.999 20.0168 24.0499 20.0677C24.1009 20.1186 24.1295 20.1877 24.1296 20.2597V27.4035C24.1295 27.4756 24.1009 27.5446 24.0499 27.5955C23.999 27.6465 23.93 27.6751 23.858 27.6752Z" fill="#332266"/>
    <path d="M28.708 27.6752H26.0483C25.9763 27.6751 25.9073 27.6465 25.8563 27.5956C25.8054 27.5446 25.7768 27.4756 25.7767 27.4036V23.7372C25.7768 23.6652 25.8054 23.5961 25.8563 23.5452C25.9073 23.4943 25.9763 23.4657 26.0483 23.4656H28.708C28.78 23.4657 28.8491 23.4943 28.9 23.5452C28.9509 23.5961 28.9796 23.6652 28.9796 23.7372V27.4036C28.9796 27.4756 28.9509 27.5446 28.9 27.5956C28.8491 27.6465 28.78 27.6751 28.708 27.6752Z" fill="#332266"/>
    <path d="M33.5585 27.6751H30.8989C30.8285 27.6767 30.7604 27.6502 30.7094 27.6016C30.6585 27.553 30.629 27.4862 30.6272 27.4158V18.8746C30.629 18.8043 30.6585 18.7374 30.7094 18.6888C30.7604 18.6402 30.8285 18.6138 30.8989 18.6153H33.5585C33.6289 18.6138 33.697 18.6402 33.7479 18.6888C33.7988 18.7374 33.8284 18.8043 33.8302 18.8746V27.4158C33.8284 27.4862 33.7988 27.553 33.7479 27.6016C33.697 27.6502 33.6289 27.6767 33.5585 27.6751Z" fill="#332266"/>
    <path d="M38.4085 27.6755H35.7488C35.6768 27.6754 35.6078 27.6468 35.5568 27.5958C35.5059 27.5449 35.4773 27.4759 35.4772 27.4039V16.4164C35.4773 16.3444 35.5059 16.2753 35.5568 16.2244C35.6078 16.1735 35.6768 16.1449 35.7488 16.1448H38.4085C38.4805 16.1449 38.5496 16.1735 38.6005 16.2244C38.6514 16.2753 38.6801 16.3444 38.6802 16.4164V27.4039C38.6801 27.4759 38.6514 27.5449 38.6005 27.5958C38.5496 27.6468 38.4805 27.6754 38.4085 27.6755Z" fill="#332266"/>
    <path d="M17.6779 22.3675C17.9811 22.3675 18.2269 22.1216 18.2269 21.8184C18.2269 21.5151 17.9811 21.2693 17.6779 21.2693C17.3746 21.2693 17.1288 21.5151 17.1288 21.8184C17.1288 22.1216 17.3746 22.3675 17.6779 22.3675Z" fill="#3F3D56"/>
    <path d="M22.5281 18.7984C22.8313 18.7984 23.0772 18.5525 23.0772 18.2493C23.0772 17.946 22.8313 17.7002 22.5281 17.7002C22.2248 17.7002 21.979 17.946 21.979 18.2493C21.979 18.5525 22.2248 18.7984 22.5281 18.7984Z" fill="#3F3D56"/>
    <path d="M27.3784 22.3675C27.6816 22.3675 27.9274 22.1216 27.9274 21.8184C27.9274 21.5151 27.6816 21.2693 27.3784 21.2693C27.0751 21.2693 26.8293 21.5151 26.8293 21.8184C26.8293 22.1216 27.0751 22.3675 27.3784 22.3675Z" fill="#3F3D56"/>
    <path d="M32.2286 17.0601C32.5319 17.0601 32.7777 16.8142 32.7777 16.511C32.7777 16.2077 32.5319 15.9619 32.2286 15.9619C31.9254 15.9619 31.6796 16.2077 31.6796 16.511C31.6796 16.8142 31.9254 17.0601 32.2286 17.0601Z" fill="#3F3D56"/>
    <path d="M37.0786 15.0467C37.3819 15.0467 37.6277 14.8008 37.6277 14.4976C37.6277 14.1943 37.3819 13.9485 37.0786 13.9485C36.7754 13.9485 36.5295 14.1943 36.5295 14.4976C36.5295 14.8008 36.7754 15.0467 37.0786 15.0467Z" fill="#3F3D56"/>
    <path d="M27.3897 21.9415L22.528 18.3L17.7326 21.8918L17.6229 21.7454L22.528 18.0713L27.3666 21.6955L32.1749 16.4337L32.1941 16.4259L37.0444 14.4717L37.1128 14.6414L32.2819 16.5879L27.3897 21.9415Z" fill="#3F3D56"/>
    <path d="M99.8938 66.9998H59.4715C59.4433 66.9998 59.4163 66.9886 59.3964 66.9687C59.3765 66.9488 59.3654 66.9218 59.3654 66.8937C59.3654 66.8656 59.3765 66.8386 59.3964 66.8187C59.4163 66.7988 59.4433 66.7876 59.4715 66.7876H99.8938C99.922 66.7876 99.9489 66.7988 99.9688 66.8187C99.9887 66.8386 99.9999 66.8656 99.9999 66.8937C99.9999 66.9218 99.9887 66.9488 99.9688 66.9687C99.9489 66.9886 99.922 66.9998 99.8938 66.9998Z" fill="#CCCCCC"/>
  </g>
  <defs>
    <clipPath id="clip0_1071_13309">
      <rect width="100" height="66.9928" fill="white" transform="translate(0 0.00708008)"/>
    </clipPath>
  </defs>
</svg>