<svg xmlns="http://www.w3.org/2000/svg" width="17" height="16" viewBox="0 0 17 16" fill="#07C5C2">
  <path d="M8.5 0C4.08172 0 0.5 3.58172 0.5 8C0.5 12.4183 4.08172 16 8.5 16C12.9183 16 16.5 12.4183 16.5 8C16.5 3.58172 12.9183 0 8.5 0ZM8.5 2.70996C10.7025 2.70996 12.4883 4.49579 12.4883 6.69824C12.4883 7.3654 12.3055 8.24612 11.9297 8.74412L8.5 13.29L5.07031 8.74415C4.65659 8.19584 4.51171 7.43483 4.51171 6.69827C4.51172 4.49579 6.29753 2.70996 8.5 2.70996ZM8.5 5.02051C7.57329 5.02051 6.82227 5.77153 6.82227 6.69824C6.82227 7.62495 7.57329 8.37597 8.5 8.37597C9.42671 8.37597 10.1777 7.62495 10.1777 6.69824C10.1777 5.77153 9.42671 5.02051 8.5 5.02051Z" fill="#07C5C2"/>
</svg>