<svg xmlns="http://www.w3.org/2000/svg" width="17" height="16" viewBox="0 0 17 16" fill="#069B99">
  <g clip-path="url(#clip0_611_29877)">
    <path fill-rule="evenodd" clip-rule="evenodd" d="M6.27027 0.316016C4.72368 0.765882 3.34872 1.67173 2.325 2.91524C1.30129 4.15875 0.676403 5.6821 0.531982 7.2863H4.18912C4.40114 4.84522 5.1089 2.47305 6.26912 0.314874L6.27027 0.316016ZM4.18912 8.71487H0.531982C0.676101 10.3191 1.30072 11.8426 2.32423 13.0863C3.34775 14.3301 4.72258 15.2362 6.26912 15.6863C5.1089 13.5281 4.40114 11.156 4.18912 8.71487ZM8.10227 15.9914C6.71575 13.7943 5.86615 11.3015 5.62227 8.71487H11.3766C11.1327 11.3015 10.2831 13.7943 8.89655 15.9914C8.63195 16.0043 8.36687 16.0043 8.10227 15.9914ZM10.7308 15.6852C12.2772 15.2351 13.6519 14.3292 14.6754 13.0857C15.6989 11.8422 16.3236 10.3189 16.468 8.71487H12.8108C12.5988 11.156 11.8911 13.5281 10.7308 15.6863V15.6852ZM12.8108 7.2863H16.468C16.3239 5.68204 15.6992 4.15855 14.6757 2.91483C13.6522 1.67111 12.2774 0.765006 10.7308 0.314874C11.8911 2.47303 12.5989 4.84521 12.8108 7.2863ZM8.10227 0.00973071C8.36725 -0.00324357 8.63271 -0.00324357 8.8977 0.00973071C10.2838 2.207 11.133 4.6998 11.3766 7.2863H5.62341C5.87141 4.68402 6.72284 2.18916 8.10227 0.00973071Z" fill="#069B99"/>
  </g>
  <defs>
    <clipPath id="clip0_611_29877">
      <rect width="16" height="16" fill="white" transform="translate(0.5)"/>
    </clipPath>
  </defs>
</svg>